<svg xmlns="http://www.w3.org/2000/svg" viewBox="0 0 500 500" width="100%" height="100%">
  <!-- Astronaut Body -->
  <g fill="#FFFFFF">
    <!-- Helmet -->
    <circle cx="250" cy="200" r="100" fill="transparent" stroke="white" stroke-width="12"/>

    <!-- Hourglass Symbol in the middle of the helmet -->
    <g transform="translate(245, 195) scale(0.8)">
      <path d="M-30,-40 L30,-40 L30,-35 L0,0 L30,35 L30,40 L-30,40 L-30,35 L0,0 L-30,-35 Z" fill="white" />
      <rect x="-5" y="-40" width="10" height="80" fill="white" />
    </g>

    <!-- Body -->
    <path d="M160,250 Q250,220 340,250 L320,330 Q250,310 180,330 Z" />

    <!-- Arms -->
    <path d="M170,260 Q140,280 130,310 Q120,330 140,340 Q160,330 165,315 Z" />
    <path d="M330,260 Q360,280 370,310 Q380,330 360,340 Q340,330 335,315 Z" />

    <!-- Base/Platform -->
    <path d="M170,330 Q250,350 330,330 Q300,380 200,380 Z" />

    <!-- Flag -->
    <path d="M360,160 L365,160 L365,120 L395,130 L365,140 Z" />
    <rect x="354" y="120" width="6" height="80" />
  </g>
</svg>
